<?xml version="1.0" encoding="UTF-8"?>
<svg id="Layer_1" data-name="Layer 1" xmlns="http://www.w3.org/2000/svg" viewBox="0 0 150 205">
  <defs>
    <style>
      .cls-1 {
        fill: #1e1c18;
      }

      .cls-2, .cls-3 {
        fill: #fff;
      }

      .cls-2, .cls-3, .cls-4 {
        stroke: #231f20;
        stroke-miterlimit: 10;
      }

      .cls-5 {
        fill: #faa837;
      }

      .cls-3 {
        stroke-width: .5px;
      }

      .cls-4 {
        fill: none;
      }
    </style>
  </defs>
  <path class="cls-5" d="M53.07,204.44c-3.6,0-7.84-.23-12.03-1.96-4.46-1.84-6.82-4.36-7.36-7.98l-8.23-.74c-2.33.73-3.32.88-4.05.88-.27,0-.53-.02-.77-.07-3.37-.67-4.33-1.86-6.42-4.49-.66-.82-1.48-1.85-2.6-3.17-1.92-2.25-2.79-4.97-2.5-7.86.61-6.2,6.04-10.95,7.69-12.25,4.32-3.42,23.33-4.84,32.19-5.32l-1.71-21.66c-.01-.17-.01-.34,0-.51.26-2.97-5.48-13.35-7.65-17.26-.7-1.28-1.41-2.55-2.12-3.81-3.57-6.4-6.94-12.45-8.07-16.2-1.29-4.26-7.8-25.9-9.26-33.09-1.35-6.59,3.04-35.67,3.54-38.96.03-.17.07-.34.12-.5.11-.31.9-2.44,3.58-3.98-.47-1.63-.38-3.88-.2-6.87.05-.86.1-1.67.1-2.2,0-1.44-.31-3.05-1.9-7.05-.33-.82-1.32-3.32.07-5.37.74-1.09,1.95-1.71,3.34-1.71.54,0,1.17.11,1.78.34.16-.24.32-.43.48-.6.74-.76,1.73-1.18,2.8-1.18,1.27,0,2.44.57,3.28,1.48.99-1.03,2.12-1.19,2.73-1.19,1.85,0,3.33,1.37,4,2.94.5-.22,1.05-.33,1.63-.33,1.87,0,3.36,1.23,4.07,2.28.76,1.12.94,2.41.49,3.54-.15.38-.47.97-1.4,2.69-.71,1.3-2.01,3.7-2.28,4.37-.09.36-.26.84-.55,1.7-.01.04-.03.08-.04.13.36-.1.7-.19,1-.27.4-.1.8-.16,1.2-.16,2.18,0,4.02,1.59,4.38,3.79.35,2.12-.79,4.07-2.76,4.73-1.47.49-3.32,1.22-4.75,1.89.91,1.35,1.17,2.51,1.21,2.72.05.27.06.54.04.8l-2.67,32.38,2.55,8.49c1.52-1.04,3.45-1.97,5.76-2.79l22.23-10.03c.39-.18.81-.27,1.23-.27s.86.09,1.26.28c0,0,24.26,11.25,24.29,11.27,6.76,2.99,8.16,6.61,8.12,9.12-.1,7.55-11.89,10.63-19.02,11.8-.17,1.83-.72,3.61-1.21,5.19-.22.73-.53,1.74-.66,2.39.92.44,2.53,1.02,3.49,1.37,3.16,1.15,4.75,1.72,5.47,3.29.11.24.19.49.24.74l2.1.8c4.07,1.55,7.55,4.46,9.8,8.19l13.35,22.13c1.99,3.29,3.34,6.9,4.01,10.73l2.67,15.39c.49.21.97.45,1.44.72,2.15.49,6.91,1.79,7.77,5.61,1.94,8.63.82,14.84-3.34,18.46-2.48,2.16-10.49,4.91-23.81,8.16-.37.09-.75.14-1.13.14-.84,0-1.64-.22-2.33-.61l-.23,1.12c-.93,4.44-4.9,7.67-9.43,7.67-.66,0-1.33-.07-1.99-.21l-10.19-2.14c-3.53.56-6.81,1.05-9.75,1.46l-1.91.54c-.27.08-.55.11-.82.11-.33,0-.66-.06-.96-.16-4.99.64-8.46.95-10.58.95-1.52,0-3.02.04-4.48.08-1.47.04-2.91.08-4.32.08ZM102.67,162.13c.95-.05,2.07-.11,3.3-.16l.5-10.68c.02-.47-.13-.94-.42-1.31l-2.61-3.33-.78,15.47ZM57.81,91.33c.39.2.76.42,1.12.62.1.06.21.12.32.18-.02-.16-.03-.33-.05-.5-.45-.09-.91-.2-1.39-.31ZM53.45,90.54c.27-.08.55-.13.83-.15-.5-.15-.99-.31-1.49-.48l.65.63Z"/>
  <g>
    <g>
      <rect class="cls-2" x="69.41" y="92.55" width="11.18" height="13.73"/>
      <polygon class="cls-2" points="52.96 72.79 75.22 62.74 99.42 73.97 52.96 72.79"/>
      <path class="cls-2" d="M105.9,80.38c-.06,4.45-8.56,8.14-20.39,9.41-2.02.23-4.14.37-6.33.44-.25.01-.51.02-.77.02-1.06.03-2.14.03-3.23.02-1.14-.01-2.26-.05-3.36-.1h-.02s-.1-.01-.15-.01c-2.51-.12-4.92-.35-7.2-.66-9.15-1.26-16.2-3.92-18.73-7.15-.68-.86-1.04-1.76-1.03-2.68,0-.19.02-.38.05-.57.44-2.46,3.49-4.66,8.23-6.3,5.61-1.95,13.59-3.12,22.44-3.02,9.76.12,18.42,1.74,24,4.19,4.09,1.78,6.52,4.01,6.49,6.41Z"/>
      <path class="cls-2" d="M70.39,72.04h9.22c3.3,0,5.98,2.68,5.98,5.98v10.48c0,5.85-4.75,10.59-10.59,10.59h0c-5.85,0-10.59-4.75-10.59-10.59v-10.48c0-3.3,2.68-5.98,5.98-5.98Z"/>
      <path class="cls-1" d="M73.99,91.97c-.85-.14-1.71-.53-2.49-1.32-.11-.11-.11-.3,0-.42.11-.11.3-.11.42,0,2.81,2.81,6.76-.16,6.8-.19.13-.1.31-.07.41.06.1.13.07.31-.06.41-.03.03-2.51,1.88-5.08,1.45Z"/>
      <path class="cls-1" d="M79.14,83.42c-.08.72.18,1.34.59,1.39.4.05.8-.5.88-1.23s-.18-1.34-.59-1.39c-.4-.05-.8.5-.88,1.23Z"/>
      <path class="cls-1" d="M70.68,83.61c.11.72.52,1.25.92,1.2.4-.06.64-.69.54-1.41-.11-.72-.52-1.25-.92-1.2-.4.06-.64.69-.54,1.41Z"/>
      <path class="cls-2" d="M49.65,113.27c1.79,3.66,2.55,8.6,2.55,8.6l-2.55-8.6Z"/>
      <path class="cls-2" d="M123.51,147.57c-.6-3.43-1.82-6.72-3.62-9.7l-13.35-22.13c-1.92-3.18-4.84-5.62-8.3-6.94l-17.07-6.51c-.18.25-.37.47-.58.68-1.28,1.32-2.94,2.62-5.29,2.65-2.71-.03-5.6-1.98-5.89-5.74l-12.28-2.75c-1.39-.58-2.65-1.42-3.74-2.46l-3.29-3.18c-1.52-1.45-2.63-3.28-3.23-5.29l-1.15-3.84c-.68-.86-1.04-1.76-1.03-2.68,0-.19.02-.38.05-.57l-4.33-14.43,2.72-32.94s-.86-4.6-8.01-4.85c-7.15-.26-8.43,3.57-8.43,3.57,0,0-4.85,31.65-3.57,37.91,1.27,6.26,6.64,24.39,9.19,32.82,1.25,4.14,5.76,11.85,9.94,19.43,4.33,7.83,8.31,15.52,8.01,18.97l.05.61,2.16,27.47c3.09.48,12.45,1.77,22.83,1.77,12.7,0,24.1-1.94,24.1-1.94l1.46-29,7.56,9.64c.74.94,1.11,2.11,1.06,3.31l-.76,16.05h.01c.3-2.92,1.66-8.31,8.14-8.29,4.64.01,7.56,3.36,8.88,5.33.25.05.49.1.73.17l-2.97-17.13ZM99.61,127.14s1.02-11.14,1.87-13.87l-1.87,13.87Z"/>
      <path class="cls-2" d="M75.3,169.43c12.7,0,24.1-1.94,24.1-1.94l-.29,5.55-.2,4.09-.39,7.79-.12,2.28-8.23,1.22-9.13,1.36-1.42.21-4.33.64-6-.97-7.24-1.16-4.59-.74-3.46-.56-.22-2.8-.49-6.18-.21-2.77-.61-7.79c3.09.48,12.45,1.77,22.83,1.77Z"/>
      <path class="cls-2" d="M99.61,127.14s1.02-11.14,1.87-13.87l-1.87,13.87Z"/>
      <path class="cls-2" d="M126.56,165.16l-.37.08-1.58.36-8.49,1.89-5.95,1.33-.49.11-1.04.23.06-1.31s0-.06.01-.08v-.28h.02c.3-2.92,1.66-8.31,8.14-8.29,4.64.01,7.56,3.36,8.88,5.33.25.05.49.1.73.17l.08.46Z"/>
      <path class="cls-2" d="M124.77,167.49l-15.24,5.68-10.62,3.96-10.96,4.08-5.89,2.2-7.06,2.63-1.97-.71-3.12-1.12-2.11-.77-9.06-3.26-5.45-1.96-7.11-2.56-15.28-5.51-.64-.24-.1-.03-1.25-.45,1.64-.14,1.22-.11h.01l13.11-1.13,1.48-.13h.12s4.91-.43,4.91-.43c0,0,.38.06,1.07.17,3.09.48,12.45,1.77,22.83,1.77,12.7,0,24.1-1.94,24.1-1.94h25.37Z"/>
      <path class="cls-2" d="M82.22,182.42l-2.12,13.26-55.6-5.01c-5.86-.94-9.86-6.45-8.92-12.32h0c.94-5.86,6.45-9.86,12.32-8.92l54.33,12.99Z"/>
      <rect class="cls-2" x="79.55" y="183.78" width="25.54" height="15.69" rx="6.65" ry="6.65" transform="translate(41.28 -14.87) rotate(11.84)"/>
      <path class="cls-2" d="M134.56,175.11c0,4.5-2.86,8.7-7.37,10.2l-21.99,6.2-12.97,3.66-8.77,2.48-7.89,2.22-2.15.61-.11-.3-2.03-5.29-1.99-5.23-1.12-2.93-.62-1.62,2.36-.9,7.61-2.91,2.82-1.08,6.49-2.48,12.28-4.7,10.56-4.03.17-.07.33-.12,3.47-1.33,6.78-2.59c1.11-.37,2.23-.55,3.34-.55.67,0,1.34.06,1.99.18.25.05.49.1.73.17,3.42.88,6.33,3.42,7.53,7.02.37,1.12.55,2.26.55,3.39Z"/>
      <path class="cls-2" d="M51.69,164.35s-28.62,1.3-33.04,4.81-9.36,10.42-4.77,15.81,4.26,6.05,7.32,6.66,41.08-16.15,53.39-16.45,18.94,0,18.94,0c0,0,3.18-1.22,7.52-3.25,3.4-1.59,6.44,13.97,7.3,19.14.17,1,1.15,1.65,2.14,1.41,5.17-1.26,19.62-4.95,22.55-7.5,3.57-3.12,3.91-8.74,2.38-15.54s-35.99-4.09-35.99-4.09c0,0-12.97,2.14-24.83,2.14s-22.9-3.13-22.9-3.13Z"/>
      <line class="cls-2" x1="38.47" y1="168.51" x2="44.94" y2="171.06"/>
      <path class="cls-2" d="M52.41,166.95s17.05,5.71,22.59,5.97"/>
      <path class="cls-2" d="M75.36,170.58s2.94,1.34,11.23-.65,9.26-2.12,9.26-2.12"/>
      <path class="cls-2" d="M99.87,170.85c.77-.98,6.13-2.13,6.13-2.13"/>
      <path class="cls-2" d="M59.43,176.11l-2.35,13.81,28.77-8.3-25.03-6.42c-.64-.16-1.28.25-1.39.9Z"/>
      <path class="cls-2" d="M87.01,178.13l5.23,17.06c.32,1.06-.35,2.16-1.45,2.34-5.94.99-23.05,3.74-28.92,3.74-7.15,0-13.65.92-19.69-1.56-6.41-2.64-6.02-6.12-5.16-10.7s6.3-7.3,14.47-5.09c2.65.72,8.09,1.43,13.09.33,7.85-1.72,16.23-5.47,19.9-7.23,1.01-.48,2.21.04,2.54,1.11Z"/>
      <path class="cls-2" d="M48.83,184.97c1.29,1.45,3.04,3.91,2.44,8.17s-3.28,6.13-3.49,6.21"/>
      <path class="cls-2" d="M126.56,165.93l-1.6.29-7.05,1.27-8.07,1.45-.17.03-1.03.19c.01-.23.01-.7.06-1.31,0-.03,0-.06.01-.08,0-.09,0-.19.02-.28.3-2.92,1.66-8.31,8.14-8.29,4.64.01,7.56,3.36,8.88,5.33.17.27.32.51.44.71.25.43.37.69.37.69Z"/>
      <path class="cls-2" d="M125.4,167.14s-2.94-7.4-9.23-6.04-6.6,8.21-6.64,9.45-.98,4.85,3.45,4.04,10.51-2.92,11.96-3.67,1.1-2.94.47-3.99"/>
      <path class="cls-2" d="M101.48,113.27l-1.87,13.87s1.02-11.14,1.87-13.87Z"/>
      <path class="cls-1" d="M83,79.77h0c-.45.32-1.42.42-2.19.24-.45-.11-.98-.22-1.55-.3-.81-.11-1.23-.49-.91-.82h0s3.34.03,4.65.87Z"/>
      <path class="cls-1" d="M67.74,79.62h0c.3.27,1.25.38,2.14.25.52-.08,1.12-.16,1.76-.21.9-.08,1.52-.37,1.37-.66h0s-3.47-.05-5.26.62Z"/>
      <path class="cls-3" d="M75.13,86.4c-.19.65-1.06.77-1.06.99s.3.82.64,1.05"/>
    </g>
    <path class="cls-2" d="M85.59,101.83c-1.87-1.47,1.01-6,1.32-10.09.05-.6.1-1.32.15-2.13.29-4.69.58-12.2-.02-14.65-.37-1.52-1.48-3.28-2.44-4.61-2.9-.33-5.99-.53-9.19-.57-3.79-.04-7.42.14-10.77.52-1.2,1.53-2.42,3.86-2.55,7.08-.13,3.29-.25,7.91-.06,11.74.12,2.49.37,4.65.82,5.88,1.15,3.13-1.83.85-3.62.43-1.48-.35-4.78-3.33-5.57-1.4-.45,1.08,1.4,13.11,6.06,18.79,4.66,5.68,8.07,7.15,18.52,5.62,10.46-1.54,15.7-11.75,16.02-12.58.31-.83-6.8-2.55-8.67-4.02ZM85.02,87.41c0,5.59-4.88,10.97-10.48,10.97s-10.13-5.16-10.13-10.75v-4.71c0-5.59,4.53-10.88,10.13-10.88,2.8,0,5.37.38,7.2,2.22,1.83,1.83,3.57,3.49,3.57,7.94l-.3,5.22Z"/>
    <path class="cls-2" d="M65.53,96.4c2.3,4.28,7.3,6.19,8.53,6.19"/>
    <path class="cls-2" d="M83.53,97.43c-1.53,4.4-3.32,7.4-6.57,8.62s-8.3-.57-8.3-.57"/>
    <path class="cls-2" d="M58.36,100.28c1.53,7.11,7.33,14.77,14.66,15.34"/>
    <path class="cls-2" d="M44.74,79.1l.98,3.25c-.68-.86-1.04-1.76-1.03-2.68,0-.19.02-.38.05-.57Z"/>
    <path class="cls-4" d="M110.76,147.23c1.02-3.4,4.17-5.11,5.1-3.49.94,1.62-2.55,2.72-2.55,2.72"/>
    <path class="cls-4" d="M55.53,107.38c-.38,5.95-6.7,12.27-6.7,12.27"/>
    <path class="cls-2" d="M38.84,33.19c.04-.14.08-.29.12-.45.4-1.49,1-3.7,1.26-4.65.41-1.49,7.01-3.9,8.44-4.37,1.44-.48.76-3.09-1.1-2.61-1.86.48-5.29,1.58-5.77,1.17-.48-.41,1.51-5.56,1.72-6.46s3.5-6.67,3.78-7.35-1.44-2.33-2.47-1.44c-1.03.89-4.26,6.32-4.6,6.87-.35.55,1.23-7.14,1.02-8.25-.2-1.1-1.92-2.95-2.68.56-.51,2.38-1.12,5.11-1.45,6.61-.06.26-.43.26-.49,0-.38-1.94-1.1-5.8-1.15-7.16-.06-1.85-2.68-2.74-2.61-.2s.96,8.1.62,8.51c-.35.41-2.69-7.15-3.18-7.98-.45-.76-3.68-1.68-2.1,2.3,1.58,3.98,2.11,6.09,2.11,8.16s-.55,6.52,0,8.3c.55,1.79,1.28,2.07,1.44,2.95.1.61-.19,2.95-.39,4.39,0,.07-.02.15-.02.21h0"/>
    <path class="cls-4" d="M28.86,31.74c3.23,1.62,10.13,1.96,11.74,1.02"/>
    <path class="cls-4" d="M41.07,16.69c-1.98-.64-7.66-.32-7.66-.32"/>
    <path class="cls-4" d="M38.61,19.11c-3.35,1.79-3.88,5.36-3.88,5.36"/>
  </g>
</svg>