<?xml version="1.0" encoding="UTF-8"?>
<svg id="Layer_1" data-name="Layer 1" xmlns="http://www.w3.org/2000/svg" viewBox="0 0 150 145">
  <defs>
    <style>
      .cls-1 {
        fill: #1e1c18;
      }

      .cls-2 {
        fill: #fff;
        stroke: #231f20;
        stroke-miterlimit: 10;
      }
    </style>
  </defs>
  <rect class="cls-2" x="69.41" y="32.55" width="11.17" height="13.72"/>
  <polygon class="cls-2" points="52.96 12.79 75.22 2.74 99.42 13.97 52.96 12.79"/>
  <path class="cls-2" d="M105.9,20.38c-.07,5.66-13.82,10.09-30.72,9.89-16.9-.19-30.55-4.94-30.48-10.6.07-5.66,13.82-10.09,30.72-9.89,16.9.19,30.55,4.94,30.48,10.6Z"/>
  <path class="cls-2" d="M85.46,21.81s3.32-3.56,5.1-.27c1.46,2.71-2.57,8.89-5.77,6.26l.67-5.99Z"/>
  <path class="cls-1" d="M85.32,26.67c.15.02.29-.08.32-.23.65-2.9,3.22-3.65,3.33-3.68.16-.04.25-.21.21-.37-.04-.16-.21-.25-.37-.21-.12.03-3.03.87-3.76,4.12-.04.16.07.32.23.36.01,0,.02,0,.03,0Z"/>
  <path class="cls-1" d="M88.29,25.18c.09,0,.18-.02.24-.08.12-.12.12-.3,0-.42-.11-.11-1.08-1.07-2-.94-.16.02-.28.17-.25.34.02.16.17.28.34.25.53-.07,1.25.53,1.49.77.05.05.11.08.18.09Z"/>
  <g>
    <path class="cls-2" d="M64.45,21.53s-3.32-3.56-5.1-.27c-1.46,2.71,2.57,8.89,5.77,6.26l-.67-5.99Z"/>
    <path class="cls-1" d="M64.6,26.39c-.15.02-.29-.08-.32-.23-.65-2.9-3.22-3.65-3.33-3.68-.16-.04-.25-.21-.21-.37.04-.16.21-.25.37-.21.12.03,3.03.87,3.76,4.12.04.16-.07.32-.23.36-.01,0-.02,0-.03,0Z"/>
    <path class="cls-1" d="M61.62,24.9c-.09,0-.18-.02-.24-.08-.12-.12-.12-.3,0-.42.11-.11,1.08-1.07,2-.94.16.02.28.17.25.34-.02.16-.17.28-.34.25-.53-.07-1.25.53-1.49.77-.05.05-.11.08-.18.09Z"/>
  </g>
  <path class="cls-2" d="M70.39,12.04h9.22c3.3,0,5.98,2.68,5.98,5.98v10.48c0,5.85-4.75,10.59-10.59,10.59h0c-5.85,0-10.59-4.75-10.59-10.59v-10.48c0-3.3,2.68-5.98,5.98-5.98Z"/>
  <path class="cls-1" d="M87.62,15.37c.14,2.94-1.6,5.13-1.6,5.13,0,0-.27-3.09-1.04-5-.76-1.92-4.08-1.15-5.7-.26-1.58.88-4.04.89-4.15.89s-2.58,0-4.16-.89c-1.61-.89-4.93-1.66-5.7.26-.77,1.91-1.03,5-1.03,5,0,0-1.74-2.19-1.61-5.13.15-3.2,7.02-4.16,7.02-4.16h10.95s6.87.96,7.02,4.16Z"/>
  <path class="cls-1" d="M73.99,31.97c-.85-.14-1.71-.53-2.49-1.32-.11-.11-.11-.3,0-.42.11-.11.3-.11.42,0,2.81,2.81,6.76-.16,6.8-.19.13-.1.31-.07.41.06.1.13.07.31-.06.41-.03.03-2.51,1.88-5.08,1.45Z"/>
  <path class="cls-1" d="M83.14,19.86h0c-.48.8-1.51,1.08-2.32.61-.47-.27-1.04-.55-1.64-.75-.86-.29-1.3-1.23-.96-2.07h0s3.53.07,4.92,2.2Z"/>
  <path class="cls-1" d="M67.73,18.68h0c.29.89,1.23,1.38,2.12,1.11.52-.16,1.13-.3,1.76-.37.9-.09,1.54-.91,1.4-1.8h0s-3.46-.71-5.28,1.06Z"/>
  <path class="cls-1" d="M79.14,23.42c-.08.72.18,1.34.59,1.39.4.05.8-.5.88-1.23s-.18-1.34-.59-1.39c-.4-.05-.8.5-.88,1.23Z"/>
  <path class="cls-1" d="M70.68,23.61c.11.72.52,1.25.92,1.2.4-.06.64-.69.54-1.41-.11-.72-.52-1.25-.92-1.2-.4.06-.64.69-.54,1.41Z"/>
  <path class="cls-1" d="M75.71,28.63c.16-.03.27-.18.25-.34-.03-.16-.18-.27-.34-.25-1.09.17-1.68-.32-1.89-.55.8-2.61,1.59-5.25,1.59-5.27.05-.16-.04-.32-.2-.37-.16-.05-.32.04-.37.2,0,.03-.83,2.76-1.64,5.42-.03.09-.01.18.04.25.03.05.81,1.18,2.57.9Z"/>
  <path class="cls-2" d="M126.56,105.15l-17.92,4.01.84-17.72c.06-1.2-.32-2.37-1.06-3.31l-7.55-9.64-2.46,48.71-23.11,3.43-21.29-3.43-3.74-47.62-4.92,8.79c-1.06,1.89-1.45,4.08-1.11,6.22l2.78,17.35-17.92-3.24s-1.19-14.55.71-20.57c1.49-4.74,10.28-23.05,14.69-32.13,1.61-3.31,4.42-5.89,7.86-7.2l17.06-6.51c1.35,1.8,3.17,2.6,5.88,2.63,2.72-.03,4.53-.83,5.88-2.63l17.06,6.51c3.46,1.32,6.39,3.77,8.3,6.94l13.35,22.13c1.8,2.98,3.03,6.27,3.62,9.71l3.05,17.58Z"/>
  <path class="cls-2" d="M28.91,109.43l22.49-1.95s11.2,1.95,23.9,1.95,24.11-1.95,24.11-1.95h25.36l-49.77,18.55-46.09-16.6Z"/>
  <path class="cls-2" d="M82.22,122.42l-2.12,13.26-55.6-5.01c-5.86-.94-9.86-6.45-8.92-12.32h0c.94-5.86,6.45-9.86,12.32-8.92l54.33,12.99Z"/>
  <rect class="cls-2" x="79.55" y="123.78" width="25.54" height="15.69" rx="6.65" ry="6.65" transform="translate(28.97 -16.14) rotate(11.84)"/>
  <path class="cls-2" d="M73.42,140.48l-5.87-15.37,52.86-20.21c5.64-1.87,11.72,1.18,13.59,6.82h0c1.87,5.64-1.18,11.72-6.82,13.59l-53.77,15.17Z"/>
  <path class="cls-2" d="M59.43,116.11l-2.35,13.81,28.77-8.3-25.03-6.42c-.64-.16-1.28.25-1.39.9Z"/>
  <path class="cls-2" d="M87.01,118.13l5.23,17.06c.32,1.06-.35,2.16-1.45,2.34-5.94.99-23.05,3.74-28.92,3.74-7.15,0-13.65.92-19.69-1.56-6.41-2.64-6.02-6.12-5.16-10.7s6.3-7.3,14.47-5.09c2.65.72,8.09,1.43,13.09.33,7.85-1.72,16.23-5.47,19.9-7.23,1.01-.48,2.21.04,2.54,1.11Z"/>
  <path class="cls-2" d="M48.83,124.97c1.29,1.45,3.04,3.91,2.44,8.17s-3.28,6.13-3.49,6.21"/>
  <path class="cls-2" d="M29.1,108.69s3.12-6.7,9.69-6.72c8.23-.03,8.2,8.68,8.23,9.96"/>
  <path class="cls-2" d="M38.41,85.98c3.06.38,4.72,3.66,4.72,3.66"/>
  <path class="cls-2" d="M37.98,89.94s1.54-.81,3.07,0,1.79,1.15,1.79,1.15"/>
  <path class="cls-2" d="M30.26,109.91s2.94-7.4,9.23-6.04,6.6,8.21,6.64,9.45.98,4.85-3.45,4.04-10.51-2.92-11.96-3.67-1.1-2.94-.47-3.99"/>
  <path class="cls-2" d="M126.56,105.92s-3.12-6.7-9.69-6.72c-8.23-.03-8.2,8.68-8.23,9.96"/>
  <path class="cls-2" d="M125.4,107.14s-2.94-7.4-9.23-6.04-6.6,8.21-6.64,9.45-.98,4.85,3.45,4.04,10.51-2.92,11.96-3.67,1.1-2.94.47-3.99"/>
  <path class="cls-2" d="M49.65,53.27c1.79,3.66,2.55,8.6,2.55,8.6"/>
  <line class="cls-2" x1="50.93" y1="76.25" x2="51.69" y2="72.33"/>
  <path class="cls-2" d="M101.48,53.27c-.85,2.72-1.87,13.87-1.87,13.87"/>
  <path class="cls-2" d="M110.76,87.23c1.02-3.4,4.17-5.11,5.11-3.49s-2.55,2.72-2.55,2.72"/>
</svg>