<?xml version="1.0" encoding="UTF-8"?>
<svg id="Layer_1" data-name="Layer 1" xmlns="http://www.w3.org/2000/svg" viewBox="0 0 150 275">
  <defs>
    <style>
      .cls-1 {
        fill: #1e1c18;
      }

      .cls-2, .cls-3 {
        fill: #fff;
      }

      .cls-2, .cls-3, .cls-4 {
        stroke: #231f20;
        stroke-miterlimit: 10;
      }

      .cls-3 {
        stroke-width: .5px;
      }

      .cls-5 {
        fill: #089f5e;
      }

      .cls-4 {
        fill: none;
      }
    </style>
  </defs>
  <path class="cls-5" d="M92.36,271.69c-1.61,0-2.94-1.28-3-2.89-.01-.38-.34-9.27-.34-10.83-.06-1.42-2.25-21.78-4.38-41.3-.14-1.28.23-2.53,1.04-3.53.21-.26.44-.49.69-.69-4.09-22.29-8.85-48.3-9.33-51.35-.01-.08-.02-.15-.04-.22-.87,5.24-4.06,22.91-9.5,52.67.59.9.87,2,.75,3.12-2.65,24.23-4.33,40.08-4.38,41.36,0,1.51-.33,10.4-.34,10.77-.06,1.61-1.38,2.89-3,2.89H27.29c-1.51,0-2.79-1.12-2.98-2.62-.06-.48-1.41-11.73,4.17-18.06,1.81-2.06,4.18-3.39,6.94-3.93.26-9.11.97-30.6,1.06-33.28.05-1.67.95-3.11,2.28-3.92,1.25-23.51,3.4-46.74,6.4-69.2-.8-.17-1.58-.55-2.22-1.09-.78.97-2,1.54-3.4,1.54-2.07,0-4.38-1.25-4.61-3.56-.04-.4-.04-1.08,0-3.1.02-1.46.07-4.16,0-4.86-.08-.37-.16-.86-.28-1.68,0-.07-.02-.14-.03-.21-.28.26-.54.5-.77.71-.86.77-1.9,1.18-3,1.18-1.77,0-3.44-1.12-4.15-2.78-.67-1.58-.36-3.31.81-4.53.09-.09.21-.21.35-.37-1.5-2.94-1.96-6.45-1.77-8.56-.19-2.4-1.08-15.33.86-21.47,1.52-4.83,9.96-22.46,14.85-32.54,1.95-4.02,5.32-7.11,9.49-8.69l15.13-5.77v-1.19c-2.17-1.78-3.75-4.2-4.51-6.88-12.77-2.11-20.28-6.72-20.21-12.51.03-2.78,1.82-6.69,10.12-9.62l22.18-10.01c.39-.18.81-.27,1.23-.27s.86.09,1.26.28c0,0,24.26,11.25,24.28,11.26,6.77,3.01,8.16,6.62,8.13,9.13-.07,5.87-7.84,10.33-20.91,12.1-.78,2.56-2.31,4.82-4.4,6.52v.97l15.72,6c4.07,1.55,7.55,4.46,9.8,8.19l13.35,22.13c1.99,3.29,3.34,6.9,4.01,10.73l3.03,17.47.16.59c.73,2.38.67,4.76-.14,6.88.07.04.15.08.22.12,1.13.65,2.06,1.12,2.39,1.29,1.78.88,2.66,2.8,2.19,4.77-.48,2.06-2.26,3.5-4.33,3.5h0c-.59,0-1.18-.12-1.75-.35-.29-.12-.62-.26-.97-.41.01.06.02.12.04.18.17.88.26,1.36.31,1.72.17.7,1.15,3.27,1.68,4.67.68,1.8.91,2.42,1.01,2.82.27,1.08,0,2.21-.75,3.18-.95,1.21-2.51,2-3.98,2-.77,0-1.5-.2-2.13-.59-.76,1.28-2.17,2.41-3.85,2.41-.58,0-2.03-.16-3.06-1.58-.81.66-1.82,1.06-2.89,1.06-1.17,0-2.26-.5-3-1.37-.19-.23-.39-.51-.56-.86-.41.09-.8.13-1.16.13-.98,0-1.88-.3-2.6-.84,3.08,21.34,7.18,50.08,7.57,54.22.19,2.01.32,7.67.41,17.26,1.22.83,2.03,2.2,2.08,3.79.53,16.06.9,27.61,1.06,33.29,2.76.54,5.13,1.87,6.94,3.93,5.58,6.33,4.23,17.58,4.17,18.06-.19,1.5-1.46,2.62-2.98,2.62h-33.23ZM102.17,116.71c.74.74,1.25,1.72,1.41,2.79.46,3.14,1.12,7.73,1.9,13.09.12-.25.25-.5.39-.76.28-.49.51-.93.72-1.33,0-.01.04-.08.05-.09,1.47-2.75,1.89-4.1,2.05-5.3.07-.52.13-1.31.19-2.16.04-.57.09-1.18.15-1.79-2.3-1.78-3.52-4.39-3.39-7.43,0-.05.02-.51.02-.51,0-.17.82-17.25.82-17.25.02-.47-.13-.94-.42-1.31l-2.61-3.33-1.28,25.39ZM49.07,110.5c.12.29.22.58.31.88l-1.34-17.02-.09.15c-.73,1.3-1,2.82-.76,4.28l1.87,11.71Z"/>
  <g>
    <g>
      <rect class="cls-2" x="69.41" y="37.22" width="11.17" height="13.72"/>
      <polygon class="cls-2" points="52.96 17.46 75.22 7.41 99.42 18.64 52.96 17.46"/>
      <path class="cls-2" d="M105.9,25.05c-.07,5.66-13.82,10.09-30.72,9.89-16.9-.19-30.55-4.94-30.48-10.6.07-5.66,13.82-10.09,30.72-9.89,16.9.19,30.55,4.94,30.48,10.6Z"/>
      <path class="cls-2" d="M85.46,26.48s3.32-3.56,5.1-.27c1.46,2.71-2.57,8.89-5.77,6.26l.67-5.99Z"/>
      <path class="cls-1" d="M85.32,31.34c.15.02.29-.08.32-.23.65-2.9,3.22-3.65,3.33-3.68.16-.04.25-.21.21-.37-.04-.16-.21-.25-.37-.21-.12.03-3.03.87-3.76,4.12-.04.16.07.32.23.36.01,0,.02,0,.03,0Z"/>
      <path class="cls-1" d="M88.29,29.85c.09,0,.18-.02.24-.08.12-.12.12-.3,0-.42-.11-.11-1.08-1.07-2-.94-.16.02-.28.17-.25.34.02.16.17.28.34.25.53-.07,1.25.53,1.49.77.05.05.11.08.18.09Z"/>
      <g>
        <path class="cls-2" d="M64.45,26.21s-3.32-3.56-5.1-.27c-1.46,2.71,2.57,8.89,5.77,6.26l-.67-5.99Z"/>
        <path class="cls-1" d="M64.6,31.07c-.15.02-.29-.08-.32-.23-.65-2.9-3.22-3.65-3.33-3.68-.16-.04-.25-.21-.21-.37.04-.16.21-.25.37-.21.12.03,3.03.87,3.76,4.12.04.16-.07.32-.23.36-.01,0-.02,0-.03,0Z"/>
        <path class="cls-1" d="M61.62,29.58c-.09,0-.18-.02-.24-.08-.12-.12-.12-.3,0-.42.11-.11,1.08-1.07,2-.94.16.02.28.17.25.34-.02.16-.17.28-.34.25-.53-.07-1.25.53-1.49.77-.05.05-.11.08-.18.09Z"/>
      </g>
      <path class="cls-2" d="M70.39,16.71h9.22c3.3,0,5.98,2.68,5.98,5.98v10.48c0,5.85-4.75,10.59-10.59,10.59h0c-5.85,0-10.59-4.75-10.59-10.59v-10.48c0-3.3,2.68-5.98,5.98-5.98Z"/>
      <path class="cls-1" d="M87.62,20.05c.14,2.94-1.6,5.13-1.6,5.13,0,0-.27-3.09-1.04-5-.76-1.92-4.08-1.15-5.7-.26-1.58.88-4.04.89-4.15.89s-2.58,0-4.16-.89c-1.61-.89-4.93-1.66-5.7.26-.77,1.91-1.03,5-1.03,5,0,0-1.74-2.19-1.61-5.13.15-3.2,7.02-4.16,7.02-4.16h10.95s6.87.96,7.02,4.16Z"/>
      <path class="cls-1" d="M83.14,24.53h0c-.48.8-1.51,1.08-2.32.61-.47-.27-1.04-.55-1.64-.75-.86-.29-1.3-1.23-.96-2.07h0s3.53.07,4.92,2.2Z"/>
      <path class="cls-1" d="M67.73,23.36h0c.29.89,1.23,1.38,2.12,1.11.52-.16,1.13-.3,1.76-.37.9-.09,1.54-.91,1.4-1.8h0s-3.46-.71-5.28,1.06Z"/>
      <path class="cls-1" d="M79.14,28.09c-.08.72.18,1.34.59,1.39.4.05.8-.5.88-1.23s-.18-1.34-.59-1.39c-.4-.05-.8.5-.88,1.23Z"/>
      <path class="cls-1" d="M70.68,28.28c.11.72.52,1.25.92,1.2.4-.06.64-.69.54-1.41-.11-.72-.52-1.25-.92-1.2-.4.06-.64.69-.54,1.41Z"/>
      <path class="cls-1" d="M75.71,33.31c.16-.03.27-.18.25-.34-.03-.16-.18-.27-.34-.25-1.09.17-1.68-.32-1.89-.55.8-2.61,1.59-5.25,1.59-5.27.05-.16-.04-.32-.2-.37-.16-.05-.32.04-.37.2,0,.03-.83,2.76-1.64,5.42-.03.09-.01.18.04.25.03.05.81,1.18,2.57.9Z"/>
      <path class="cls-2" d="M118.52,120.66c-6.21.26-10.09-2.34-9.88-6.83,0-.08.01-.19.01-.32,0-.2.02-.46.04-.76v-.02l.79-16.62c.05-1.2-.32-2.37-1.06-3.31l-7.56-9.64-2.46,48.71-23.11,3.43-21.29-3.43-3.74-47.62-4.92,8.79c-1.06,1.89-1.45,4.08-1.11,6.22l1.93,12.06c.99,2.28.99,4.67.86,5.28-1.69,7.55-7.9,8.24-12.41,7.47-4.51-.77-5.91-8.04-5.51-10.7h0s-1.19-14.55.71-20.57c1.49-4.74,10.28-23.05,14.69-32.13,1.61-3.31,4.42-5.89,7.86-7.2l17.06-6.51c1.35,1.8,3.17,2.6,5.88,2.63,2.72-.03,4.53-.83,5.88-2.63l17.07,6.51c3.46,1.32,6.38,3.76,8.3,6.94l13.35,22.13c1.8,2.98,3.02,6.27,3.62,9.7l3.05,17.59.21.78c1.66,5.3-2.04,9.8-8.25,10.05Z"/>
      <path class="cls-2" d="M38.41,90.66c3.06.38,4.72,3.66,4.72,3.66"/>
      <path class="cls-2" d="M37.98,94.61s1.54-.81,3.07,0,1.79,1.15,1.79,1.15"/>
      <path class="cls-2" d="M49.65,57.94c1.79,3.66,2.55,8.6,2.55,8.6"/>
      <line class="cls-4" x1="50.93" y1="80.92" x2="51.69" y2="77"/>
      <path class="cls-2" d="M101.48,57.94c-.85,2.72-1.87,13.87-1.87,13.87"/>
      <path class="cls-2" d="M110.76,91.9c1.02-3.4,4.17-5.11,5.11-3.49s-2.55,2.72-2.55,2.72"/>
    </g>
    <path class="cls-2" d="M51.23,120c.19-1.16,1.33-1.9,2.46-1.59,3.65.99,11.66,2.81,21.06,2.81s19.35-1.96,23.46-2.92c1.13-.26,2.23.49,2.4,1.63,1.7,11.68,9.77,67.34,10.31,73.08.6,6.42.5,53.88.5,53.88l-15.26,2.14s-15.29-82.9-16.15-88.42-5.16-6.22-5.75-1.58-16.32,89.99-16.32,89.99l-17.43-.89c.56-42.77,3.86-85.5,10.73-128.15Z"/>
    <path class="cls-2" d="M52.65,123.45c3.49.94,13.81,2.89,22.35,2.89s21.65-2.89,21.65-2.89"/>
    <path class="cls-2" d="M72.56,129.58c-.09,8.43.36,14.21,2.44,15.06s2.64.68,2.64.68"/>
    <path class="cls-2" d="M77.64,129.24c.79,9.96,1.13,23.91,1.13,23.91"/>
    <path class="cls-2" d="M83.29,155.32c5.49-2.55,11.62-3.45,11.62-3.45"/>
    <path class="cls-2" d="M61.33,150.73c6.64,2.55,10.34,5.49,10.34,5.49"/>
    <path class="cls-2" d="M66.5,157.75c2.49-.13,5.17.51,5.17.51"/>
    <path class="cls-2" d="M41.42,212.19l22.25,2.19c.98.1,1.69.97,1.59,1.95-.88,8-4.4,40.28-4.4,41.63,0,1.53-.34,10.72-.34,10.72H27.29s-2.38-18.89,11.06-18.89c.14-5.94.91-29.11,1.13-35.91.03-1.02.92-1.8,1.94-1.7Z"/>
    <path class="cls-2" d="M38.35,249.8c9.62.08,16.77,3.27,17.02,3.78"/>
    <path class="cls-2" d="M43.63,247.07c5.11-.26,14.3,2.73,14.3,2.73"/>
    <path class="cls-2" d="M111.45,212.19l-22.25,2.19c-.98.1-1.69.97-1.59,1.95.88,8,4.4,40.28,4.4,41.63,0,1.53.34,10.72.34,10.72h33.23s2.38-18.89-11.06-18.89c-.14-5.94-.91-29.11-1.13-35.91-.03-1.02-.92-1.8-1.94-1.7Z"/>
    <path class="cls-2" d="M114.53,249.8c-9.62.08-16.77,3.27-17.02,3.78"/>
    <path class="cls-2" d="M109.25,247.07c-5.11-.26-14.3,2.73-14.3,2.73"/>
    <path class="cls-3" d="M72.45,35.93c-.26-.28-.08-.73.3-.75,1.88-.09,6.02-.29,6.09-.23.09.08-.45,3.12-2.79,3.29-1.58.12-2.8-1.47-3.6-2.31Z"/>
    <path class="cls-2" d="M34.45,113.51c.07.31.14.63.21.94.19.87.36,1.67.47,2.15.21,1.02-1.83,3.66-3.53,5.63-.84.98-1.59,1.79-1.94,2.15-1.06,1.1.75,3.09,2.18,1.81.66-.59,1.55-1.46,2.39-2.2h.01c.97-.87,1.85-1.58,2.18-1.5.22.06.44.82.65,1.81.36,1.73.66,4.14.8,4.71.23.89-.03,7.53.05,8.27.07.73,2.35,1.4,2.85.13.51-1.26.86-7.57.91-8.21.06-.65,2.2,6.9,2.9,7.79.68.88,3.06,1.73,2.12-1.73-.65-2.35-1.37-5.05-1.76-6.54-.07-.26.26-.43.43-.21,1.23,1.55,3.65,4.63,4.33,5.82.91,1.61,3.64,1.19,2.4-1.03-1.23-2.22-4.59-6.74-4.48-7.27.11-.49,5.14,4.55,6.35,5.51.06.04.12.08.16.11.74.46,4.04-.2.79-3.01-.46-.39-.88-.77-1.26-1.12-2.37-2.14-3.55-3.57-4.37-5.14-.62-1.2-1.51-3.42-2.42-5.18-.48-.93-.97-1.73-1.42-2.19-1.31-1.34-2.09-1.25-2.64-1.95-.13-.17-.31-.54-.5-1.01-.18-.39-.36-.86-.54-1.34"/>
    <path class="cls-4" d="M39.64,127.11c2.05-.35,6.94-3.25,6.94-3.25"/>
    <path class="cls-4" d="M40.7,123.82c2.15-3.13.97-6.55.97-6.55"/>
    <path class="cls-2" d="M129.37,123.21c-.82-.33-1.95-.85-2.99-1.26h-.01c-1.21-.49-2.28-.86-2.56-.68-.19.13-.14.92,0,1.93.25,1.75.78,4.12.84,4.7.08.92,2.57,7.08,2.75,7.8.18.71-1.74,2.11-2.64,1.09-.91-1.02-3.37-6.84-3.63-7.42-.28-.6.26,7.23-.1,8.31-.34,1.06-2.3,2.66-2.58-.91-.18-2.44-.42-5.22-.55-6.75-.03-.27-.39-.32-.48-.06-.63,1.88-1.87,5.59-2.11,6.94-.31,1.83-3.02,2.35-2.61-.15.41-2.51,2.05-7.9,1.76-8.36-.26-.42-3.3,6.02-4.11,7.33-.04.06-.09.12-.11.16-.54.68-3.87,1.18-1.76-2.57.3-.52.56-1.02.8-1.48,1.51-2.81,2.14-4.56,2.38-6.31.18-1.34.27-3.73.53-5.69.14-1.04.33-1.96.59-2.55.78-1.7,1.55-1.88,1.83-2.72.07-.21.11-.62.13-1.12.03-.34.04-.71.05-1.11,2.4-1.5,5.7-2.11,7.65-2.04.12,1.06.28,2.61.31,2.82.12.88.23,1.7.28,2.18.15,1.04,2.96,2.83,5.23,4.11,1.12.64,2.1,1.15,2.55,1.37,1.37.68.34,3.16-1.44,2.44Z"/>
    <path class="cls-4" d="M122.34,126.7c-2.05.37-7.63-.71-7.63-.71"/>
    <path class="cls-4" d="M120.23,123.97c-3.08-2.22-3.12-5.84-3.12-5.84"/>
    <path class="cls-4" d="M32.85,115.01c1.79-2.23,8.11-6.06,10.98-3.45"/>
    <path class="cls-4" d="M124,110.69c-.2-.24-.76-.38-1.56-.4-1.95-.07-5.25.54-7.65,2.04-.51.32-.99.68-1.4,1.09"/>
  </g>
</svg>